<svg xmlns="http://www.w3.org/2000/svg" width="1200" height="720" viewBox="0 0 1200 720">
<defs><linearGradient id="g" x1="0" x2="1"><stop stop-color="#0b6377"/><stop offset="1" stop-color="#11a28f"/></linearGradient></defs>
<rect width="1200" height="720" rx="36" fill="#edf8f7"/>
<circle cx="195" cy="130" r="105" fill="#6edfc9" opacity=".15"/>
<circle cx="1010" cy="560" r="150" fill="#6cbfd8" opacity=".13"/>
<g transform="translate(180 120)">
<rect width="340" height="510" rx="45" fill="#163f4b"/>
<rect x="22" y="52" width="296" height="410" rx="23" fill="#fff"/>
<circle cx="170" cy="485" r="14" fill="#a9c4c8"/>
<rect x="58" y="95" width="210" height="30" rx="15" fill="#e7f5f3"/>
<rect x="58" y="150" width="95" height="95" rx="18" fill="#dff5f0"/>
<path d="M90 198 l20 20 42 -48" fill="none" stroke="#0c9b87" stroke-width="12" stroke-linecap="round"/>
<rect x="172" y="155" width="100" height="15" rx="7" fill="#d7e5e7"/><rect x="172" y="190" width="82" height="15" rx="7" fill="#d7e5e7"/>
<rect x="58" y="285" width="212" height="17" rx="8" fill="#d7e5e7"/><rect x="58" y="326" width="212" height="17" rx="8" fill="#d7e5e7"/>
<rect x="58" y="370" width="150" height="48" rx="15" fill="url(#g)"/>
</g>
<g transform="translate(650 185)" font-family="Microsoft JhengHei,Arial">
<text x="0" y="0" font-size="44" font-weight="700" fill="#173e49">線上申請更方便</text>
<g transform="translate(0 70)">
<circle cx="28" cy="28" r="28" fill="#0c9685"/><text x="28" y="38" text-anchor="middle" font-size="25" fill="#fff">1</text>
<text x="80" y="37" font-size="25" font-weight="700" fill="#274f59">填寫基本資料</text>
</g>
<g transform="translate(0 160)">
<circle cx="28" cy="28" r="28" fill="#45b9cc"/><text x="28" y="38" text-anchor="middle" font-size="25" fill="#fff">2</text>
<text x="80" y="37" font-size="25" font-weight="700" fill="#274f59">上傳證明文件</text>
</g>
<g transform="translate(0 250)">
<circle cx="28" cy="28" r="28" fill="#e6b246"/><text x="28" y="38" text-anchor="middle" font-size="25" fill="#fff">3</text>
<text x="80" y="37" font-size="25" font-weight="700" fill="#274f59">等待審核通知</text>
</g>
<g transform="translate(0 340)">
<circle cx="28" cy="28" r="28" fill="#0c9685"/><text x="28" y="38" text-anchor="middle" font-size="25" fill="#fff">4</text>
<text x="80" y="37" font-size="25" font-weight="700" fill="#274f59">完成後續文件</text>
</g>
</g>
</svg>